# xmcd
#
# Track frame offsets: 
#        150
#        20243
#        36105
#        53844
#        72933
#        96418
#        120676
#        140558
#        158801
#        178699
#        199149
#
# Disc length: 2931 seconds
#
# Revision: 0
# Processed by: cddbd v1.5.1PL0 Copyright (c) Steve Scherf et al.
# Submitted via: ExactAudioCopy v0.95a5
#
DISCID=a10b710b
DTITLE=Davidson, Dennis - Ordinary Lives
DYEAR=2005
DGENRE=Country
TTITLE0=Brand New Life
TTITLE1=Peace Of Mind
TTITLE2=In Spite of Myself
TTITLE3=Let Me
TTITLE4=Johnny
TTITLE5=When Laura Leaves
TTITLE6=A Little Bit of Love (Joe's side of the story)
TTITLE7=Ordinary Life
TTITLE8=I've Been Down This Road Before
TTITLE9=Together
TTITLE10=Thank God for You (thank God for me)
EXTD=
EXTT0=
EXTT1=
EXTT2=
EXTT3=
EXTT4=
EXTT5=
EXTT6=
EXTT7=
EXTT8=
EXTT9=
EXTT10=
PLAYORDER=
